<?xml version="1.0" encoding="UTF-8"?>
<svg width="120" height="16" viewBox="0 0 120 16" fill="none" xmlns="http://www.w3.org/2000/svg">
  <path d="M0 0H120V16H0V0Z" fill="white" fill-opacity="0.1"/>
  <path fill-rule="evenodd" clip-rule="evenodd" d="M0 0H8V8H0V0ZM16 8H8V16H16V8ZM24 0H16V8H24V0ZM32 8H24V16H32V8ZM40 0H32V8H40V0ZM48 8H40V16H48V8ZM56 0H48V8H56V0ZM64 8H56V16H64V8ZM72 0H64V8H72V0ZM80 8H72V16H80V8ZM88 0H80V8H88V0ZM96 8H88V16H96V8ZM104 0H96V8H104V0ZM112 8H104V16H112V8ZM120 0H112V8H120V0Z" fill="white"/>
</svg> 